<?xml version="1.0" encoding="UTF-8" standalone="no"?>
<!DOCTYPE svg PUBLIC "-//W3C//DTD SVG 1.1//EN" "http://www.w3.org/Graphics/SVG/1.1/DTD/svg11.dtd">
<!-- 由 Microsoft Visio, SVG Export 生成 上位机通信握手状态机.svg 握手状态机 -->
<svg xmlns="http://www.w3.org/2000/svg" xmlns:xlink="http://www.w3.org/1999/xlink" xmlns:ev="http://www.w3.org/2001/xml-events"
		width="9.55845in" height="4.95722in" viewBox="0 0 688.208 356.92" xml:space="preserve" color-interpolation-filters="sRGB"
		class="st11">
	<style type="text/css">
	<![CDATA[
		.st1 {fill:#ffffff;stroke:#000000;stroke-linecap:round;stroke-linejoin:round;stroke-width:0.24}
		.st2 {fill:#000000;font-family:宋体;font-size:0.833336em}
		.st3 {font-size:1em}
		.st4 {marker-end:url(#mrkr4-10);stroke:#000000;stroke-dasharray:3,1.5;stroke-linecap:butt;stroke-width:1.5}
		.st5 {fill:#000000;fill-opacity:1;stroke:#000000;stroke-opacity:1;stroke-width:0.37313432835821}
		.st6 {marker-end:url(#mrkr4-10);stroke:#000000;stroke-linecap:butt;stroke-width:1.5}
		.st7 {fill:none;stroke:none;stroke-linecap:round;stroke-linejoin:round;stroke-width:0.75}
		.st8 {fill:#000000;font-family:Courier New;font-size:0.833336em}
		.st9 {marker-end:url(#mrkr3-118);stroke:#000000;stroke-dasharray:4,2,4,2,1,2;stroke-linecap:butt;stroke-width:1}
		.st10 {fill:#000000;fill-opacity:1;stroke:#000000;stroke-opacity:1;stroke-width:0.28409090909091}
		.st11 {fill:none;fill-rule:evenodd;font-size:12px;overflow:visible;stroke-linecap:square;stroke-miterlimit:3}
	]]>
	</style>

	<defs id="Markers">
		<g id="lend4">
			<path d="M 2 1 L 0 0 L 2 -1 L 2 1 " style="stroke:none"/>
		</g>
		<marker id="mrkr4-10" class="st5" refX="-5.36" orient="auto" markerUnits="strokeWidth" overflow="visible">
			<use xlink:href="#lend4" transform="scale(-2.68,-2.68) "/>
		</marker>
		<g id="lend3">
			<path d="M 2 1 L 0 0 L 2 -1 " style="stroke-linecap:round;stroke-linejoin:round;fill:none"/>
		</g>
		<marker id="mrkr3-118" class="st10" orient="auto" markerUnits="strokeWidth" overflow="visible">
			<use xlink:href="#lend3" transform="scale(-3.52,-3.52) "/>
		</marker>
	</defs>
	<g>
		<title>握手状态机</title>
		<g id="shape1-1" transform="translate(32.2932,-182.895)">
			<title>流程</title>
			<desc>就绪 IDLE</desc>
			<rect x="0" y="314.4" width="70.8661" height="42.5197" class="st1"/>
			<text x="25.43" y="332.66" class="st2">就绪<tspan x="25.43" dy="1.2em" class="st3">IDLE</tspan></text>		</g>
		<g id="shape4-5" transform="translate(60.6397,-296.28)">
			<title>动态连接线</title>
			<path d="M7.09 356.92 L7.09 419.75" class="st4"/>
		</g>
		<g id="shape5-11" transform="translate(174.026,-182.895)">
			<title>流程.5</title>
			<desc>命令识别 GET CMD</desc>
			<rect x="0" y="314.4" width="70.8661" height="42.5197" class="st1"/>
			<text x="15.43" y="332.66" class="st2">命令识别<tspan x="17.93" dy="1.2em" class="st3">GET CMD</tspan></text>		</g>
		<g id="shape6-15" transform="translate(103.159,-197.068)">
			<title>动态连接线.6</title>
			<path d="M0 349.83 L62.83 349.83" class="st6"/>
		</g>
		<g id="shape7-20" transform="translate(117.333,-204.154)">
			<title>工作表.7</title>
			<desc>RX=ENQ</desc>
			<rect x="0" y="342.747" width="56.6929" height="14.1732" class="st7"/>
			<text x="10.34" y="352.83" class="st8">RX=ENQ</text>		</g>
		<g id="shape9-23" transform="translate(315.758,-182.895)">
			<title>流程.9</title>
			<desc>参数接收 GET ARGS</desc>
			<rect x="0" y="314.4" width="70.8661" height="42.5197" class="st1"/>
			<text x="15.43" y="332.66" class="st2">参数接收<tspan x="15.43" dy="1.2em" class="st3">GET ARGS</tspan></text>		</g>
		<g id="shape12-27" transform="translate(457.49,-182.895)">
			<title>流程.12</title>
			<desc>等待回复确认 WAIT ACK</desc>
			<rect x="0" y="314.4" width="70.8661" height="42.5197" class="st1"/>
			<text x="5.43" y="332.66" class="st2">等待回复确认 <tspan x="15.43" dy="1.2em" class="st3">WAIT ACK</tspan></text>		</g>
		<g id="shape23-31" transform="translate(599.222,-182.895)">
			<title>流程.23</title>
			<desc>等待执行 WAIT ACK</desc>
			<rect x="0" y="314.4" width="70.8661" height="42.5197" class="st1"/>
			<text x="15.43" y="332.66" class="st2">等待执行<tspan x="15.43" dy="1.2em" class="st3">WAIT ACK</tspan></text>		</g>
		<g id="shape24-35" transform="translate(457.49,-69.5087)">
			<title>流程.24</title>
			<desc>等待回复错误 ON ERROR</desc>
			<rect x="0" y="314.4" width="70.8661" height="42.5197" class="st1"/>
			<text x="5.43" y="332.66" class="st2">等待回复错误 <tspan x="15.43" dy="1.2em" class="st3">ON ERROR</tspan></text>		</g>
		<g id="shape25-39" transform="translate(244.892,-197.068)">
			<title>动态连接线.25</title>
			<path d="M0 349.83 L62.83 349.83" class="st6"/>
		</g>
		<g id="shape26-44" transform="translate(386.624,-197.068)">
			<title>动态连接线.26</title>
			<path d="M0 349.83 L62.83 349.83" class="st6"/>
		</g>
		<g id="shape27-49" transform="translate(528.356,-197.068)">
			<title>动态连接线.27</title>
			<path d="M0 349.83 L62.83 349.83" class="st6"/>
		</g>
		<g id="shape28-54" transform="translate(351.191,-182.895)">
			<title>动态连接线.28</title>
			<path d="M0 356.92 L0 449.05 L98.26 449.05" class="st6"/>
		</g>
		<g id="shape29-59" transform="translate(209.459,-182.895)">
			<title>动态连接线.29</title>
			<path d="M0 356.92 L0 449.05 L239.99 449.05" class="st6"/>
		</g>
		<g id="shape31-64" transform="translate(209.459,-218.328)">
			<title>动态连接线.31</title>
			<path d="M0 349.83 L0 321.49 L283.46 321.49 L283.46 341.79" class="st6"/>
		</g>
		<g id="shape32-69" transform="translate(500.01,-69.5087)">
			<title>动态连接线.32</title>
			<path d="M-7.09 356.92 L-7.09 391.4" class="st6"/>
		</g>
		<g id="shape33-74" transform="translate(634.655,-175.808)">
			<title>动态连接线.33</title>
			<path d="M0 349.83 L0 505.74 L-566.93 505.74 L-566.93 357.87" class="st6"/>
		</g>
		<g id="shape34-79" transform="translate(18.12,-296.28)">
			<title>自定义 4</title>
			<desc>超时复位 复位码复位</desc>
			<path d="M17.01 356.92 L82.2 356.92 L99.21 335.66 L82.2 314.4 L17.01 314.4 L0 335.66 L17.01 356.92 Z" class="st1"/>
			<text x="24.61" y="332.16" class="st2">超时复位／ <tspan x="24.61" dy="1.275em" class="st3">复位码复位</tspan></text>		</g>
		<g id="shape37-83" transform="translate(103.159,-204.154)">
			<title>动态连接线.37</title>
			<path d="M0 356.92 L28.35 356.92 L28.35 420.7 L-27.39 420.7" class="st6"/>
		</g>
		<g id="shape38-88" transform="translate(74.8129,-140.375)">
			<title>工作表.38</title>
			<desc>RX!=ENQ</desc>
			<rect x="0" y="342.747" width="56.6929" height="14.1732" class="st7"/>
			<text x="7.34" y="352.83" class="st8">RX!=ENQ</text>		</g>
		<g id="shape39-91" transform="translate(209.459,-161.635)">
			<title>工作表.39</title>
			<desc>无效命令</desc>
			<rect x="0" y="342.747" width="49.6063" height="14.1732" class="st7"/>
			<text x="4" y="352.83" class="st2">无效命令</text>		</g>
		<g id="shape41-94" transform="translate(351.191,-161.635)">
			<title>工作表.41</title>
			<desc>错误参数</desc>
			<rect x="0" y="342.747" width="49.6063" height="14.1732" class="st7"/>
			<text x="4" y="352.83" class="st2">错误参数</text>		</g>
		<g id="shape42-97" transform="translate(216.545,-232.501)">
			<title>工作表.42</title>
			<desc>无参数命令</desc>
			<rect x="0" y="342.747" width="70.8661" height="14.1732" class="st7"/>
			<text x="4" y="352.83" class="st2">无参数命令</text>		</g>
		<g id="shape43-100" transform="translate(244.892,-204.154)">
			<title>工作表.43</title>
			<desc>有参数命令</desc>
			<rect x="0" y="342.747" width="70.8661" height="14.1732" class="st7"/>
			<text x="4" y="352.83" class="st2">有参数命令</text>		</g>
		<g id="shape44-103" transform="translate(386.624,-204.154)">
			<title>工作表.44</title>
			<desc>参数接收</desc>
			<rect x="0" y="342.747" width="70.8661" height="14.1732" class="st7"/>
			<text x="4" y="352.83" class="st2">参数接收</text>		</g>
		<g id="shape47-106" transform="translate(528.356,-168.721)">
			<title>工作表.47</title>
			<desc>TX=ACK</desc>
			<rect x="0" y="342.747" width="70.8661" height="14.1732" class="st7"/>
			<text x="4" y="352.83" class="st8">TX=ACK</text>		</g>
		<g id="shape48-109" transform="translate(521.27,-34.0756)">
			<title>工作表.48</title>
			<desc>TX=NAK TX=ErrorCode</desc>
			<rect x="0" y="328.574" width="92.126" height="28.3464" class="st7"/>
			<text x="4" y="339.75" class="st8">TX=NAK <tspan x="4" dy="1.2em" class="st3">TX=ErrorCode</tspan></text>		</g>
		<g id="shape49-113" transform="translate(492.923,-41.1622)">
			<title>动态连接线.49</title>
			<path d="M0 349.83 L28.35 349.83" class="st9"/>
		</g>
		<g id="shape50-119" transform="translate(549.616,-204.154)">
			<title>动态连接线.50</title>
			<path d="M7.09 356.92 L7.09 378.18" class="st9"/>
		</g>
		<g id="shape51-124" transform="translate(585.049,-112.028)">
			<title>工作表.51</title>
			<desc>执行完毕</desc>
			<rect x="0" y="342.747" width="49.6063" height="14.1732" class="st7"/>
			<text x="5.61" y="352.83" class="st2">执行完毕</text>		</g>
		<g id="shape52-127" transform="translate(549.616,-140.375)">
			<title>工作表.52</title>
			<desc>TX=...</desc>
			<rect x="0" y="342.747" width="49.6063" height="14.1732" class="st7"/>
			<text x="4" y="352.83" class="st8">TX=...</text>		</g>
		<g id="shape53-130" transform="translate(634.655,-140.375)">
			<title>动态连接线.53</title>
			<path d="M0 349.83 L-35.43 349.83" class="st9"/>
		</g>
	</g>
</svg>
